<svg xmlns="http://www.w3.org/2000/svg" xmlns:xlink="http://www.w3.org/1999/xlink" width="207" height="33" viewBox="0 0 207 33"><defs><linearGradient id="a" x1="0.425" y1="0.363" x2="0.695" y2="0.857" gradientUnits="objectBoundingBox"><stop offset="0" stop-color="#f2f2f2"/><stop offset="0.14" stop-color="#e6e6e6"/><stop offset="0.39" stop-color="#c7c7c7"/><stop offset="0.73" stop-color="#949494"/><stop offset="1" stop-color="#666"/></linearGradient><linearGradient id="b" x1="0.407" y1="0.625" x2="0.744" y2="0.175" gradientUnits="objectBoundingBox"><stop offset="0" stop-color="#fff"/><stop offset="0.21" stop-color="#c8c8c8"/><stop offset="0.47" stop-color="gray"/></linearGradient><linearGradient id="c" x1="0.5" y1="1" x2="0.5" y2="-0.001" gradientUnits="objectBoundingBox"><stop offset="0" stop-color="#fff"/><stop offset="0.22" stop-color="#f2f2f2"/><stop offset="0.53" stop-color="#bbb"/><stop offset="0.58" stop-color="#b3b3b3"/><stop offset="1" stop-color="#fff"/></linearGradient><linearGradient id="e" x1="0.228" y1="2.659" x2="0.767" y2="-1.692" gradientUnits="objectBoundingBox"><stop offset="0" stop-color="#4d4d4d"/><stop offset="0.17" stop-color="#575757"/><stop offset="0.45" stop-color="#717171"/><stop offset="0.82" stop-color="#9b9b9b"/><stop offset="1" stop-color="#b3b3b3"/></linearGradient><linearGradient id="f" x1="0.118" y1="81.808" x2="0.675" y2="81.49" gradientUnits="objectBoundingBox"><stop offset="0.17" stop-color="#ccc"/><stop offset="1" stop-color="#4d4d4d"/></linearGradient><clipPath id="h"><rect width="207" height="33"/></clipPath></defs><g id="g" clip-path="url(#h)"><g transform="translate(-580.358 -423.245)"><g transform="translate(615.819 423.245)"><path d="M1.98-14.777l.686-4.139H19.094l-.686,4.139H12.759L10.309,0H5.18L7.63-14.777ZM25.522.254a9.015,9.015,0,0,1-4.12-.9,6.578,6.578,0,0,1-2.787-2.641,8.389,8.389,0,0,1-1-4.253,13.33,13.33,0,0,1,.743-4.475,11.429,11.429,0,0,1,2.139-3.713,9.966,9.966,0,0,1,3.352-2.526,10.187,10.187,0,0,1,4.367-.914,10.47,10.47,0,0,1,3.231.47,6.9,6.9,0,0,1,2.482,1.377,5.593,5.593,0,0,1,1.536,2.241,7.368,7.368,0,0,1,.406,3.072H30.663a3.52,3.52,0,0,0-.114-1.1,2.121,2.121,0,0,0-.457-.851,2.072,2.072,0,0,0-.8-.546,3.106,3.106,0,0,0-1.143-.19,4.257,4.257,0,0,0-2.361.647,5.328,5.328,0,0,0-1.657,1.708,8.354,8.354,0,0,0-.978,2.317,9.9,9.9,0,0,0-.324,2.476,4.368,4.368,0,0,0,.349,1.86,2.368,2.368,0,0,0,1.028,1.111,3.436,3.436,0,0,0,1.657.368,4.863,4.863,0,0,0,1.39-.19,4.037,4.037,0,0,0,1.155-.546,3.745,3.745,0,0,0,.882-.851,3.67,3.67,0,0,0,.559-1.1h5.205A8.652,8.652,0,0,1,34-4.443,10.219,10.219,0,0,1,32.022-2.12,9.669,9.669,0,0,1,29.184-.4,9.77,9.77,0,0,1,25.522.254Zm18.493-19.17L40.879,0H35.75l3.136-18.916ZM42.521,0l9.268-18.916H58.8L62.021,0H56.409l-.978-7.338q-.317-2.387-.514-4.958t-.336-5.11h1.168q-.952,2.539-1.923,5.11t-2.05,4.958L48.462,0Zm5.142-3.631L48.3-7.465h10.41l-.635,3.834Z" transform="translate(-2 25)"/><path d="M.912,0,4.048-18.916h6.776a7.09,7.09,0,0,1,3.54.763,3.969,3.969,0,0,1,1.824,2.1,5.967,5.967,0,0,1,.207,3.077,7.156,7.156,0,0,1-1.232,3.053,6.288,6.288,0,0,1-2.528,2.045,8.964,8.964,0,0,1-3.784.732H3.758l.41-2.477h4.8a5.964,5.964,0,0,0,2.339-.4,3.32,3.32,0,0,0,1.461-1.156,4.305,4.305,0,0,0,.694-1.8,2.945,2.945,0,0,0-.533-2.565,3.7,3.7,0,0,0-2.844-.9H6.535L3.814,0ZM11.665,0,8.5-8.548H11.71L14.961,0ZM23.054.3a6.482,6.482,0,0,1-3.088-.688,4.745,4.745,0,0,1-1.985-1.975,6.407,6.407,0,0,1-.695-3.084,10.074,10.074,0,0,1,.6-3.477,9.2,9.2,0,0,1,1.67-2.882,7.967,7.967,0,0,1,2.508-1.961,6.885,6.885,0,0,1,3.11-.713,6.007,6.007,0,0,1,2.487.483,3.9,3.9,0,0,1,1.674,1.371,3.666,3.666,0,0,1,.6,2.105,3.263,3.263,0,0,1-.668,2.084,4.564,4.564,0,0,1-2.035,1.363,14.385,14.385,0,0,1-3.454.743,45.934,45.934,0,0,1-4.915.228l.334-1.918q2.36,0,3.918-.116a11.384,11.384,0,0,0,2.458-.4,2.572,2.572,0,0,0,1.279-.759,1.864,1.864,0,0,0,.379-1.2,1.427,1.427,0,0,0-.64-1.222,2.876,2.876,0,0,0-1.7-.456,3.852,3.852,0,0,0-2.31.676,5.1,5.1,0,0,0-1.511,1.726,8.471,8.471,0,0,0-.831,2.207,9.772,9.772,0,0,0-.26,2.128,4.652,4.652,0,0,0,.312,1.742,2.551,2.551,0,0,0,1.031,1.234A3.56,3.56,0,0,0,23.239-2a4.58,4.58,0,0,0,2.253-.544A3.507,3.507,0,0,0,26.96-4.029l2.554.549a5.9,5.9,0,0,1-2.49,2.761A7.656,7.656,0,0,1,23.054.3Zm16.624-14.5-.37,2.27h-7.7l.37-2.27ZM34.623-17.57h2.793L35.143-3.839a1.631,1.631,0,0,0,.158,1.27,1.347,1.347,0,0,0,1.115.389A4.272,4.272,0,0,0,37-2.232q.361-.052.628-.1L37.738-.1a6.164,6.164,0,0,1-.962.209A7.405,7.405,0,0,1,35.75.185a3.636,3.636,0,0,1-2.849-1,3.23,3.23,0,0,1-.6-2.8ZM39.937,0l2.349-14.193h2.7l-.372,2.28h.152a4.317,4.317,0,0,1,1.665-1.818,4.441,4.441,0,0,1,2.337-.661q.268,0,.607.02t.558.048l-.443,2.666a6.013,6.013,0,0,0-.6-.1,6.687,6.687,0,0,0-.83-.052,4.039,4.039,0,0,0-1.8.409,3.879,3.879,0,0,0-1.387,1.127,3.688,3.688,0,0,0-.713,1.655L42.729,0Zm9.337,0,2.349-14.193h2.793L52.067,0Zm4.113-16.364a1.474,1.474,0,0,1-1.155-.482,1.366,1.366,0,0,1-.33-1.168,1.866,1.866,0,0,1,.717-1.181,2.059,2.059,0,0,1,1.314-.482A1.489,1.489,0,0,1,55.1-19.2a1.353,1.353,0,0,1,.317,1.181,1.806,1.806,0,0,1-.7,1.168A2.076,2.076,0,0,1,53.387-16.364ZM61.421.3a6.482,6.482,0,0,1-3.088-.688,4.745,4.745,0,0,1-1.985-1.975,6.407,6.407,0,0,1-.695-3.084,10.074,10.074,0,0,1,.6-3.477,9.2,9.2,0,0,1,1.67-2.882,7.967,7.967,0,0,1,2.508-1.961,6.885,6.885,0,0,1,3.11-.713,6.007,6.007,0,0,1,2.487.483A3.9,3.9,0,0,1,67.7-12.621a3.666,3.666,0,0,1,.6,2.105,3.263,3.263,0,0,1-.668,2.084A4.564,4.564,0,0,1,65.6-7.069a14.385,14.385,0,0,1-3.454.743,45.934,45.934,0,0,1-4.915.228l.334-1.918q2.36,0,3.918-.116a11.384,11.384,0,0,0,2.458-.4,2.572,2.572,0,0,0,1.279-.759,1.864,1.864,0,0,0,.379-1.2,1.427,1.427,0,0,0-.64-1.222,2.876,2.876,0,0,0-1.7-.456,3.852,3.852,0,0,0-2.31.676,5.1,5.1,0,0,0-1.511,1.726A8.471,8.471,0,0,0,58.6-7.557a9.772,9.772,0,0,0-.26,2.128,4.652,4.652,0,0,0,.312,1.742,2.551,2.551,0,0,0,1.031,1.234A3.56,3.56,0,0,0,61.606-2a4.58,4.58,0,0,0,2.253-.544,3.507,3.507,0,0,0,1.468-1.488l2.554.549a5.9,5.9,0,0,1-2.49,2.761A7.656,7.656,0,0,1,61.421.3ZM73.194,0,70.188-14.193h2.885l1.482,8.067q.24,1.33.355,2.668t.254,2.653h-.831q.576-1.315,1.122-2.646t1.235-2.675l4.137-8.067h3.121L76.24,0ZM88.879.3a6.482,6.482,0,0,1-3.088-.688,4.745,4.745,0,0,1-1.985-1.975,6.407,6.407,0,0,1-.695-3.084,10.074,10.074,0,0,1,.6-3.477,9.2,9.2,0,0,1,1.67-2.882,7.967,7.967,0,0,1,2.508-1.961,6.885,6.885,0,0,1,3.11-.713,6.007,6.007,0,0,1,2.487.483,3.9,3.9,0,0,1,1.674,1.371,3.666,3.666,0,0,1,.6,2.105,3.263,3.263,0,0,1-.668,2.084,4.564,4.564,0,0,1-2.035,1.363,14.385,14.385,0,0,1-3.454.743,45.934,45.934,0,0,1-4.915.228l.334-1.918q2.36,0,3.918-.116a11.384,11.384,0,0,0,2.458-.4,2.572,2.572,0,0,0,1.279-.759,1.864,1.864,0,0,0,.379-1.2,1.427,1.427,0,0,0-.64-1.222,2.876,2.876,0,0,0-1.7-.456,3.852,3.852,0,0,0-2.31.676A5.1,5.1,0,0,0,86.89-9.763a8.471,8.471,0,0,0-.831,2.207,9.772,9.772,0,0,0-.26,2.128,4.652,4.652,0,0,0,.312,1.742,2.551,2.551,0,0,0,1.031,1.234A3.56,3.56,0,0,0,89.064-2a4.58,4.58,0,0,0,2.253-.544,3.507,3.507,0,0,0,1.468-1.488l2.554.549a5.9,5.9,0,0,1-2.49,2.761A7.656,7.656,0,0,1,88.879.3Zm8.2-.3,2.349-14.193h2.7l-.372,2.28h.152a4.317,4.317,0,0,1,1.665-1.818,4.441,4.441,0,0,1,2.337-.661q.268,0,.607.02t.558.048l-.443,2.666a6.012,6.012,0,0,0-.6-.1,6.687,6.687,0,0,0-.83-.052,4.039,4.039,0,0,0-1.8.409,3.879,3.879,0,0,0-1.387,1.127,3.688,3.688,0,0,0-.713,1.655L99.872,0Z" transform="translate(64.8 25)"/></g><g transform="translate(580.358 423.245)"><path d="M37.568,62.387A14.336,14.336,0,0,1,23.086,48.146,13.948,13.948,0,0,1,25.7,40.027L24.316,37.89a16.038,16.038,0,0,0-3.7,10.256A16.511,16.511,0,0,0,37.427,64.513a23.076,23.076,0,0,0,8.76-1.756V59.8C44.348,61.6,41.128,62.387,37.568,62.387Z" transform="translate(-20.62 -31.646)" fill="#5bc6ff"/><path d="M78.736,11.9a14.818,14.818,0,0,1,3.573-.427c3.237,0,6.075.641,8.352,2.451V10.907A25.214,25.214,0,0,0,82.17,9.29a17.484,17.484,0,0,0-4.72.641Z" transform="translate(-65.307 -9.157)" fill="#5bc6ff"/></g><g transform="translate(540.358 383.112)"><g transform="translate(40 40.266)" style="mix-blend-mode:exclusion;isolation:isolate"><g transform="translate(6.197 5.578)"><ellipse cx="11.346" cy="10.713" rx="11.346" ry="10.713" transform="translate(0.573 0)" fill="url(#a)"/><circle cx="10.435" cy="10.435" r="10.435" transform="translate(0 0.361)" stroke="#1b81fb" stroke-miterlimit="10" stroke-width="3.66" fill="url(#b)"/><circle cx="4.773" cy="4.773" r="4.773" transform="translate(6.705 6.023)" stroke="#707070" stroke-miterlimit="10" stroke-width="3.57" fill="url(#c)"/></g><circle cx="4.773" cy="4.773" r="4.773" transform="translate(12.901 11.602)" fill="none" stroke="#000" stroke-miterlimit="10" stroke-width="3.57"/><path d="M44.265,26.7c.231-.15.47-.312.568-.387l.16.246c-.107.062-.355.214-.585.363l-.233.152c.077.126.188.295.278.427l.675,1.032c.147.226.325.491.4.588l-.3.194c-.062-.107-.231-.376-.38-.6l-.675-1.032c-.09-.137-.214-.3-.291-.427l-.229.15c-.226.147-.462.312-.56.385l-.16-.246c.107-.06.348-.214.575-.361Z" transform="translate(-38.171 -22.673)" fill="#fff"/><path d="M54.021,21.922l1.244-.814-.226-.346c-.124-.19-.3-.455-.4-.59l.293-.192c.09.152.256.427.376.6l.786,1.207c.113.173.259.382.327.47l-.293.192c-.053-.1-.19-.312-.306-.489l-.415-.641-1.237.82.417.641c.113.173.259.382.327.47l-.293.192c-.053-.1-.19-.312-.306-.489l-.786-1.205c-.154-.237-.333-.5-.4-.59l.293-.192c.051.094.214.368.376.6Z" transform="translate(-46.184 -17.696)" fill="#fff"/><path d="M64.456,15.646l.474.724.263-.171c.226-.147.415-.276.513-.35l.16.246c-.107.06-.3.182-.526.329l-.256.175.575.878.293-.192c.231-.15.462-.306.556-.378l.16.246c-.1.058-.34.214-.568.359l-.588.37c-.113-.188-.278-.455-.376-.6l-.714-1.092c-.15-.231-.329-.487-.4-.583l.549-.359c.229-.15.455-.308.553-.382l.175.256c-.109.058-.342.214-.57.355Z" transform="translate(-54.747 -13.669)" fill="#fff"/></g><circle cx="10.435" cy="10.435" r="10.435" transform="translate(46.196 46.206)" fill="none" stroke="#1b81fb" stroke-miterlimit="10" stroke-width="3.66"/><g transform="translate(40 40.266)"><path d="M56.921,125.058a.521.521,0,0,1-.534.511l-9.649-.214a.521.521,0,0,1-.509-.534l.024-1.043a.521.521,0,0,1,.534-.509l9.649.214a.521.521,0,0,1,.509.534Z" transform="translate(-40.758 -98.915)" fill="#333"/><path d="M96.962,107.414c0,.288-.115.521-.19.521L94.1,111.762c-.075,0-.271-.233-.271-.521V110.2c0-.288.156-.521.231-.521l2.667-3.827c.077,0,.237.233.237.521Z" transform="translate(-78.188 -85.219)" fill="#666"/><path d="M48.623,100.645c0,.111-.233.19-.521.19l-14.26-.261c-.288,0-.521-.079-.521-.19l10.957-4.769a2.8,2.8,0,0,1,.521,0H51.58a5.18,5.18,0,0,1,.521,0Z" transform="translate(-30.607 -77.16)" fill="url(#c)"/><path d="M48.874,119.382c0,.1,0,.188-.085.188l-15.016-.261c-.1,0-.132-.077-.132-.173v-1.3c0-.1.036-.173.132-.173l15.115.259a.165.165,0,0,1,.165.173Z" transform="translate(-30.859 -94.505)" fill="url(#e)"/><path d="M107.208,95.984l-3.464,6.222c-.017.028-.284.066-.284-.03v-1.6c0-.056.214-.214.241-.25l3.536-4.718" transform="translate(-85.761 -77.166)" fill="url(#f)"/></g></g></g></g></svg>