<svg xmlns="http://www.w3.org/2000/svg" xmlns:xlink="http://www.w3.org/1999/xlink" width="270" height="33" viewBox="0 0 270 33"><defs><linearGradient id="a" x1="0.425" y1="0.363" x2="0.695" y2="0.857" gradientUnits="objectBoundingBox"><stop offset="0" stop-color="#f2f2f2"/><stop offset="0.14" stop-color="#e6e6e6"/><stop offset="0.39" stop-color="#c7c7c7"/><stop offset="0.73" stop-color="#949494"/><stop offset="1" stop-color="#666"/></linearGradient><linearGradient id="b" x1="0.407" y1="0.625" x2="0.744" y2="0.175" gradientUnits="objectBoundingBox"><stop offset="0" stop-color="#fff"/><stop offset="0.21" stop-color="#c8c8c8"/><stop offset="0.47" stop-color="gray"/></linearGradient><linearGradient id="c" x1="0.5" y1="1" x2="0.5" y2="-0.001" gradientUnits="objectBoundingBox"><stop offset="0" stop-color="#fff"/><stop offset="0.22" stop-color="#f2f2f2"/><stop offset="0.53" stop-color="#bbb"/><stop offset="0.58" stop-color="#b3b3b3"/><stop offset="1" stop-color="#fff"/></linearGradient><linearGradient id="e" x1="0.228" y1="2.659" x2="0.767" y2="-1.692" gradientUnits="objectBoundingBox"><stop offset="0" stop-color="#4d4d4d"/><stop offset="0.17" stop-color="#575757"/><stop offset="0.45" stop-color="#717171"/><stop offset="0.82" stop-color="#9b9b9b"/><stop offset="1" stop-color="#b3b3b3"/></linearGradient><linearGradient id="f" x1="0.118" y1="81.808" x2="0.675" y2="81.49" gradientUnits="objectBoundingBox"><stop offset="0.17" stop-color="#ccc"/><stop offset="1" stop-color="#4d4d4d"/></linearGradient><clipPath id="h"><rect width="270" height="33"/></clipPath></defs><g id="g" clip-path="url(#h)"><path d="M1.98-14.777l.686-4.139H19.094l-.686,4.139H12.759L10.309,0H5.18L7.63-14.777ZM25.522.254a9.015,9.015,0,0,1-4.12-.9,6.578,6.578,0,0,1-2.787-2.641,8.389,8.389,0,0,1-1-4.253,13.33,13.33,0,0,1,.743-4.475,11.429,11.429,0,0,1,2.139-3.713,9.966,9.966,0,0,1,3.352-2.526,10.187,10.187,0,0,1,4.367-.914,10.47,10.47,0,0,1,3.231.47,6.9,6.9,0,0,1,2.482,1.377,5.593,5.593,0,0,1,1.536,2.241,7.368,7.368,0,0,1,.406,3.072H30.663a3.52,3.52,0,0,0-.114-1.1,2.121,2.121,0,0,0-.457-.851,2.072,2.072,0,0,0-.8-.546,3.106,3.106,0,0,0-1.143-.19,4.257,4.257,0,0,0-2.361.647,5.328,5.328,0,0,0-1.657,1.708,8.354,8.354,0,0,0-.978,2.317,9.9,9.9,0,0,0-.324,2.476,4.368,4.368,0,0,0,.349,1.86,2.368,2.368,0,0,0,1.028,1.111,3.436,3.436,0,0,0,1.657.368,4.863,4.863,0,0,0,1.39-.19,4.037,4.037,0,0,0,1.155-.546,3.745,3.745,0,0,0,.882-.851,3.67,3.67,0,0,0,.559-1.1h5.205A8.652,8.652,0,0,1,34-4.443,10.219,10.219,0,0,1,32.022-2.12,9.669,9.669,0,0,1,29.184-.4,9.77,9.77,0,0,1,25.522.254Zm18.493-19.17L40.879,0H35.75l3.136-18.916ZM42.521,0l9.268-18.916H58.8L62.021,0H56.409l-.978-7.338q-.317-2.387-.514-4.958t-.336-5.11h1.168q-.952,2.539-1.923,5.11t-2.05,4.958L48.462,0Zm5.142-3.631L48.3-7.465h10.41l-.635,3.834ZM75.862,0H70.441l.548-3.339h4.719a7.229,7.229,0,0,0,3.174-.649A5.283,5.283,0,0,0,81.08-6a9.29,9.29,0,0,0,1.195-3.47,8.012,8.012,0,0,0-.037-3.471,3.235,3.235,0,0,0-1.5-1.994,5.786,5.786,0,0,0-2.917-.643H72.935l.554-3.339H78.3a9.241,9.241,0,0,1,4.772,1.136,6.317,6.317,0,0,1,2.741,3.253,9.574,9.574,0,0,1,.324,5.069,13.567,13.567,0,0,1-1.823,5.08A9.09,9.09,0,0,1,80.854-1.13,10.472,10.472,0,0,1,75.862,0ZM75.7-18.916,72.569,0H68.69l3.136-18.916ZM92.171.236a4.654,4.654,0,0,1-2.8-.846A4.577,4.577,0,0,1,87.7-3.089a8.862,8.862,0,0,1-.107-3.99,10.546,10.546,0,0,1,1.463-4.049,7.244,7.244,0,0,1,2.5-2.431,6.091,6.091,0,0,1,3.022-.813,4.007,4.007,0,0,1,1.933.4,3.121,3.121,0,0,1,1.128,1A4.239,4.239,0,0,1,98.2-11.8h.129l.389-2.389h3.8L100.173,0h-3.75l.369-2.272h-.178a6.165,6.165,0,0,1-.966,1.16,5.1,5.1,0,0,1-1.458.962A4.889,4.889,0,0,1,92.171.236Zm1.691-3.052a2.966,2.966,0,0,0,1.746-.538,4.239,4.239,0,0,0,1.283-1.5,7.063,7.063,0,0,0,.722-2.239,6.083,6.083,0,0,0,.02-2.241,2.581,2.581,0,0,0-.794-1.468,2.309,2.309,0,0,0-1.575-.52,3,3,0,0,0-1.774.544,4.178,4.178,0,0,0-1.276,1.494A7.17,7.17,0,0,0,91.5-7.09a6.347,6.347,0,0,0-.011,2.214,2.681,2.681,0,0,0,.784,1.514A2.254,2.254,0,0,0,93.862-2.816Zm18.359-11.378-.475,2.9h-8.421l.475-2.9Zm-5.9-3.377h3.807L107.911-4.155a1.268,1.268,0,0,0,.144,1.005,1.145,1.145,0,0,0,.932.316,4.906,4.906,0,0,0,.62-.054q.4-.054.614-.1l.064,2.855A8.541,8.541,0,0,1,109,.122,10.2,10.2,0,0,1,107.778.2a4.033,4.033,0,0,1-3.1-1.039,3.386,3.386,0,0,1-.632-2.978ZM117.335.236a4.654,4.654,0,0,1-2.8-.846,4.577,4.577,0,0,1-1.667-2.479,8.862,8.862,0,0,1-.107-3.99,10.546,10.546,0,0,1,1.463-4.049,7.244,7.244,0,0,1,2.5-2.431,6.091,6.091,0,0,1,3.022-.813,4.007,4.007,0,0,1,1.933.4,3.121,3.121,0,0,1,1.128,1,4.239,4.239,0,0,1,.559,1.166h.129l.389-2.389h3.8L125.337,0h-3.75l.369-2.272h-.178a6.165,6.165,0,0,1-.966,1.16,5.1,5.1,0,0,1-1.458.962A4.889,4.889,0,0,1,117.335.236Zm1.691-3.052a2.966,2.966,0,0,0,1.746-.538,4.239,4.239,0,0,0,1.283-1.5,7.063,7.063,0,0,0,.722-2.239,6.083,6.083,0,0,0,.02-2.241A2.581,2.581,0,0,0,122-10.8a2.309,2.309,0,0,0-1.575-.52,3,3,0,0,0-1.774.544,4.178,4.178,0,0,0-1.276,1.494,7.17,7.17,0,0,0-.711,2.192,6.347,6.347,0,0,0-.011,2.214,2.681,2.681,0,0,0,.784,1.514A2.254,2.254,0,0,0,119.027-2.816ZM134.4,0l3.136-18.916h6.475a7,7,0,0,1,3.536.762,3.847,3.847,0,0,1,1.765,2.082,5.984,5.984,0,0,1,.184,3,7.2,7.2,0,0,1-1.181,2.971,6.109,6.109,0,0,1-2.45,2.031,8.7,8.7,0,0,1-3.758.736h-5.142l.355-2.146h5.015a6.2,6.2,0,0,0,2.5-.438,3.5,3.5,0,0,0,1.536-1.25,4.731,4.731,0,0,0,.724-1.9,3.228,3.228,0,0,0-.546-2.742,3.838,3.838,0,0,0-3.021-.978h-3.936L136.812,0Zm10.867,0-3.161-8.519h2.717L148.06,0ZM156.16.3a6.16,6.16,0,0,1-3-.686,4.664,4.664,0,0,1-1.923-1.968,6.534,6.534,0,0,1-.673-3.072,10.21,10.21,0,0,1,.6-3.51,9.308,9.308,0,0,1,1.663-2.895,7.949,7.949,0,0,1,2.469-1.961,6.576,6.576,0,0,1,3.015-.711,5.573,5.573,0,0,1,2.387.476,3.67,3.67,0,0,1,1.574,1.346,3.711,3.711,0,0,1,.559,2.05,3.364,3.364,0,0,1-.616,2.038A4.327,4.327,0,0,1,160.3-7.211a13,13,0,0,1-3.32.781,40.512,40.512,0,0,1-4.831.248l.3-1.727q2.323,0,3.885-.133a10.648,10.648,0,0,0,2.482-.451,2.693,2.693,0,0,0,1.32-.851,2.159,2.159,0,0,0,.4-1.333,1.527,1.527,0,0,0-.679-1.3,2.986,2.986,0,0,0-1.784-.489,4.217,4.217,0,0,0-2.444.692A5.473,5.473,0,0,0,153.989-10a8.6,8.6,0,0,0-.933,2.3,9.513,9.513,0,0,0-.3,2.266,4.97,4.97,0,0,0,.343,1.885,2.8,2.8,0,0,0,1.124,1.339,3.834,3.834,0,0,0,2.076.5,4.886,4.886,0,0,0,2.418-.59,3.965,3.965,0,0,0,1.606-1.606l2.12.6a5.9,5.9,0,0,1-2.482,2.647A7.509,7.509,0,0,1,156.16.3Zm16.11-14.5-.317,1.955h-7.338l.317-1.955Zm-4.634-3.377h2.285l-2.3,13.889a1.813,1.813,0,0,0,.165,1.4,1.449,1.449,0,0,0,1.206.425,3.975,3.975,0,0,0,.559-.051q.343-.051.635-.1l.14,1.93a4.876,4.876,0,0,1-.8.184,6.128,6.128,0,0,1-.927.07A3.442,3.442,0,0,1,165.878-.8a3.152,3.152,0,0,1-.578-2.7ZM172.571,0l2.349-14.193h2.209l-.355,2.184h.152a4.243,4.243,0,0,1,1.682-1.733A4.682,4.682,0,0,1,181-14.4q.254,0,.6.013t.546.025l-.381,2.3q-.152-.025-.54-.076a6.2,6.2,0,0,0-.806-.051,4.273,4.273,0,0,0-1.892.425,4.057,4.057,0,0,0-1.454,1.168,3.771,3.771,0,0,0-.743,1.708L174.856,0Zm8.937,0,2.349-14.193h2.285L183.793,0Zm3.885-16.517a1.323,1.323,0,0,1-1.041-.444,1.231,1.231,0,0,1-.292-1.066,1.688,1.688,0,0,1,.647-1.073,1.866,1.866,0,0,1,1.193-.438,1.347,1.347,0,0,1,1.054.438,1.233,1.233,0,0,1,.292,1.073,1.706,1.706,0,0,1-.647,1.066A1.866,1.866,0,0,1,185.393-16.517ZM193.146.3a6.16,6.16,0,0,1-3-.686,4.664,4.664,0,0,1-1.923-1.968,6.534,6.534,0,0,1-.673-3.072,10.21,10.21,0,0,1,.6-3.51,9.308,9.308,0,0,1,1.663-2.895,7.949,7.949,0,0,1,2.469-1.961,6.576,6.576,0,0,1,3.015-.711,5.573,5.573,0,0,1,2.387.476,3.67,3.67,0,0,1,1.574,1.346,3.711,3.711,0,0,1,.559,2.05,3.364,3.364,0,0,1-.616,2.038,4.327,4.327,0,0,1-1.911,1.377,13,13,0,0,1-3.32.781,40.512,40.512,0,0,1-4.831.248l.3-1.727q2.323,0,3.885-.133a10.648,10.648,0,0,0,2.482-.451,2.693,2.693,0,0,0,1.32-.851,2.159,2.159,0,0,0,.4-1.333,1.527,1.527,0,0,0-.679-1.3,2.986,2.986,0,0,0-1.784-.489,4.217,4.217,0,0,0-2.444.692A5.473,5.473,0,0,0,190.975-10a8.6,8.6,0,0,0-.933,2.3,9.513,9.513,0,0,0-.3,2.266,4.97,4.97,0,0,0,.343,1.885,2.8,2.8,0,0,0,1.124,1.339,3.834,3.834,0,0,0,2.076.5A4.886,4.886,0,0,0,195.7-2.3,3.965,3.965,0,0,0,197.31-3.91l2.12.6a5.9,5.9,0,0,1-2.482,2.647A7.509,7.509,0,0,1,193.146.3ZM204.914,0l-3.072-14.193h2.387l1.638,8.417q.254,1.308.381,2.609t.292,2.52H205.7q.571-1.219,1.117-2.514t1.244-2.615l4.418-8.417h2.6L207.313,0ZM220,.3a6.16,6.16,0,0,1-3-.686,4.664,4.664,0,0,1-1.923-1.968,6.534,6.534,0,0,1-.673-3.072,10.21,10.21,0,0,1,.6-3.51,9.308,9.308,0,0,1,1.663-2.895,7.949,7.949,0,0,1,2.469-1.961,6.576,6.576,0,0,1,3.015-.711,5.573,5.573,0,0,1,2.387.476,3.67,3.67,0,0,1,1.574,1.346,3.711,3.711,0,0,1,.559,2.05,3.364,3.364,0,0,1-.616,2.038,4.327,4.327,0,0,1-1.911,1.377,13,13,0,0,1-3.32.781,40.512,40.512,0,0,1-4.831.248l.3-1.727q2.323,0,3.885-.133a10.648,10.648,0,0,0,2.482-.451,2.693,2.693,0,0,0,1.32-.851,2.159,2.159,0,0,0,.4-1.333,1.527,1.527,0,0,0-.679-1.3,2.986,2.986,0,0,0-1.784-.489,4.217,4.217,0,0,0-2.444.692A5.473,5.473,0,0,0,217.829-10a8.6,8.6,0,0,0-.933,2.3,9.513,9.513,0,0,0-.3,2.266,4.97,4.97,0,0,0,.343,1.885,2.8,2.8,0,0,0,1.124,1.339,3.834,3.834,0,0,0,2.076.5,4.886,4.886,0,0,0,2.418-.59,3.965,3.965,0,0,0,1.606-1.606l2.12.6A5.9,5.9,0,0,1,223.8-.667,7.509,7.509,0,0,1,220,.3Zm8.176-.3,2.349-14.193h2.209l-.355,2.184h.152a4.243,4.243,0,0,1,1.682-1.733,4.682,4.682,0,0,1,2.393-.654q.254,0,.6.013t.546.025l-.381,2.3q-.152-.025-.54-.076a6.2,6.2,0,0,0-.806-.051,4.273,4.273,0,0,0-1.892.425,4.057,4.057,0,0,0-1.454,1.168,3.771,3.771,0,0,0-.743,1.708L230.461,0Z" transform="translate(32 26)"/><g transform="translate(-580.358 -423.245)"><g transform="translate(580.358 423.245)"><path d="M37.568,62.387A14.336,14.336,0,0,1,23.086,48.146,13.948,13.948,0,0,1,25.7,40.027L24.316,37.89a16.038,16.038,0,0,0-3.7,10.256A16.511,16.511,0,0,0,37.427,64.513a23.076,23.076,0,0,0,8.76-1.756V59.8C44.348,61.6,41.128,62.387,37.568,62.387Z" transform="translate(-20.62 -31.646)" fill="#5bc6ff"/><path d="M78.736,11.9a14.818,14.818,0,0,1,3.573-.427c3.237,0,6.075.641,8.352,2.451V10.907A25.214,25.214,0,0,0,82.17,9.29a17.484,17.484,0,0,0-4.72.641Z" transform="translate(-65.307 -9.157)" fill="#5bc6ff"/></g><g transform="translate(540.358 383.112)"><g transform="translate(40 40.266)" style="mix-blend-mode:exclusion;isolation:isolate"><g transform="translate(6.197 5.578)"><ellipse cx="11.346" cy="10.713" rx="11.346" ry="10.713" transform="translate(0.573 0)" fill="url(#a)"/><circle cx="10.435" cy="10.435" r="10.435" transform="translate(0 0.361)" stroke="#1b81fb" stroke-miterlimit="10" stroke-width="3.66" fill="url(#b)"/><circle cx="4.773" cy="4.773" r="4.773" transform="translate(6.705 6.023)" stroke="#707070" stroke-miterlimit="10" stroke-width="3.57" fill="url(#c)"/></g><circle cx="4.773" cy="4.773" r="4.773" transform="translate(12.901 11.602)" fill="none" stroke="#000" stroke-miterlimit="10" stroke-width="3.57"/><path d="M44.265,26.7c.231-.15.47-.312.568-.387l.16.246c-.107.062-.355.214-.585.363l-.233.152c.077.126.188.295.278.427l.675,1.032c.147.226.325.491.4.588l-.3.194c-.062-.107-.231-.376-.38-.6l-.675-1.032c-.09-.137-.214-.3-.291-.427l-.229.15c-.226.147-.462.312-.56.385l-.16-.246c.107-.06.348-.214.575-.361Z" transform="translate(-38.171 -22.673)" fill="#fff"/><path d="M54.021,21.922l1.244-.814-.226-.346c-.124-.19-.3-.455-.4-.59l.293-.192c.09.152.256.427.376.6l.786,1.207c.113.173.259.382.327.47l-.293.192c-.053-.1-.19-.312-.306-.489l-.415-.641-1.237.82.417.641c.113.173.259.382.327.47l-.293.192c-.053-.1-.19-.312-.306-.489l-.786-1.205c-.154-.237-.333-.5-.4-.59l.293-.192c.051.094.214.368.376.6Z" transform="translate(-46.184 -17.696)" fill="#fff"/><path d="M64.456,15.646l.474.724.263-.171c.226-.147.415-.276.513-.35l.16.246c-.107.06-.3.182-.526.329l-.256.175.575.878.293-.192c.231-.15.462-.306.556-.378l.16.246c-.1.058-.34.214-.568.359l-.588.37c-.113-.188-.278-.455-.376-.6l-.714-1.092c-.15-.231-.329-.487-.4-.583l.549-.359c.229-.15.455-.308.553-.382l.175.256c-.109.058-.342.214-.57.355Z" transform="translate(-54.747 -13.669)" fill="#fff"/></g><circle cx="10.435" cy="10.435" r="10.435" transform="translate(46.196 46.206)" fill="none" stroke="#1b81fb" stroke-miterlimit="10" stroke-width="3.66"/><g transform="translate(40 40.266)"><path d="M56.921,125.058a.521.521,0,0,1-.534.511l-9.649-.214a.521.521,0,0,1-.509-.534l.024-1.043a.521.521,0,0,1,.534-.509l9.649.214a.521.521,0,0,1,.509.534Z" transform="translate(-40.758 -98.915)" fill="#333"/><path d="M96.962,107.414c0,.288-.115.521-.19.521L94.1,111.762c-.075,0-.271-.233-.271-.521V110.2c0-.288.156-.521.231-.521l2.667-3.827c.077,0,.237.233.237.521Z" transform="translate(-78.188 -85.219)" fill="#666"/><path d="M48.623,100.645c0,.111-.233.19-.521.19l-14.26-.261c-.288,0-.521-.079-.521-.19l10.957-4.769a2.8,2.8,0,0,1,.521,0H51.58a5.18,5.18,0,0,1,.521,0Z" transform="translate(-30.607 -77.16)" fill="url(#c)"/><path d="M48.874,119.382c0,.1,0,.188-.085.188l-15.016-.261c-.1,0-.132-.077-.132-.173v-1.3c0-.1.036-.173.132-.173l15.115.259a.165.165,0,0,1,.165.173Z" transform="translate(-30.859 -94.505)" fill="url(#e)"/><path d="M107.208,95.984l-3.464,6.222c-.017.028-.284.066-.284-.03v-1.6c0-.056.214-.214.241-.25l3.536-4.718" transform="translate(-85.761 -77.166)" fill="url(#f)"/></g></g></g></g></svg>